<svg width="38" height="33" viewBox="0 0 38 33" fill="none" xmlns="http://www.w3.org/2000/svg">
<path d="M13.0625 27.8438C13.7183 27.8438 14.25 27.382 14.25 26.8125C14.25 26.243 13.7183 25.7812 13.0625 25.7812C12.4067 25.7812 11.875 26.243 11.875 26.8125C11.875 27.382 12.4067 27.8438 13.0625 27.8438Z" stroke="black" stroke-width="1.5" stroke-linecap="round" stroke-linejoin="round"/>
<path d="M29.6875 27.8438C30.3433 27.8438 30.875 27.382 30.875 26.8125C30.875 26.243 30.3433 25.7812 29.6875 25.7812C29.0317 25.7812 28.5 26.243 28.5 26.8125C28.5 27.382 29.0317 27.8438 29.6875 27.8438Z" stroke="black" stroke-width="1.5" stroke-linecap="round" stroke-linejoin="round"/>
<path d="M3.5625 5.15625H8.3125L11.875 22.6875H30.875" stroke="black" stroke-width="1.5" stroke-linecap="round" stroke-linejoin="round"/>
<path d="M11.875 17.1875H30.3881C30.5254 17.1876 30.6585 17.1463 30.7648 17.0708C30.871 16.9952 30.9438 16.89 30.9707 16.7731L33.1082 7.49182C33.1255 7.41698 33.1234 7.33974 33.1021 7.2657C33.0808 7.19165 33.0408 7.12262 32.9851 7.06361C32.9294 7.0046 32.8592 6.95707 32.7798 6.92446C32.7003 6.89184 32.6135 6.87495 32.5256 6.875H9.5" stroke="black" stroke-width="1.5" stroke-linecap="round" stroke-linejoin="round"/>
</svg>
